# File created by Blade
# Date/Time:  Wed Jan 21 19:09:01 2015
#---------------------------------------------------------
:version 1.10
:name HOM
:units
  mass 1.0
  length 1.000000
  angle deg
:documentation
     Acclaim Skeleton File
:root
   axis xyz
   order TX TY TZ RX RY RZ
   position 0.000000 0.000000 0.000000
   orientation 0 0 0
:bonedata
   begin
      id 1
      name RightUpLeg_dum
      direction -1.000000 0.000000 0.000000
      length 3.693983
      axis 0.0 0.0 0.0 xyz
   end
   begin
      id 2
      name LeftUpLeg_dum
      direction 1.000000 0.000000 0.000000
      length 3.693983
      axis 0.0 0.0 0.0 xyz
   end
   begin
      id 3
      name Spine_dum
      direction 0.000000 1.000000 0.000000
      length 2.392956
      axis 0.0 0.0 0.0 xyz
   end
   begin
      id 4
      name RightUpLeg
      direction 0.000000 -1.000000 0.000000
      length 15.795667
      axis 0.0 0.0 0.0 xyz
      dof rx ry rz
   end
   begin
      id 5
      name RightLeg
      direction 0.000000 -1.000000 0.000000
      length 14.766989
      axis 0.0 0.0 0.0 xyz
      dof rx ry rz
   end
   begin
      id 6
      name RightFoot
      direction 0.000000 -0.258819 0.965926
      length 4.962790
      axis 15.0 0.0 0.0 xyz
      dof rx ry rz
   end
   begin
      id 7
      name RightToeBase
      direction 0.000000 0.000000 1.000000
      length 2.952750
      axis 0.0 0.0 0.0 xyz
      dof rx ry rz
   end
   begin
      id 8
      name LeftUpLeg
      direction 0.000000 -1.000000 0.000000
      length 15.795667
      axis 0.0 0.0 0.0 xyz
      dof rx ry rz
   end
   begin
      id 9
      name LeftLeg
      direction 0.000000 -1.000000 0.000000
      length 14.766989
      axis 0.0 0.0 0.0 xyz
      dof rx ry rz
   end
   begin
      id 10
      name LeftFoot
      direction 0.000000 -0.258819 0.965926
      length 4.962790
      axis 15.0 0.0 0.0 xyz
      dof rx ry rz
   end
   begin
      id 11
      name LeftToeBase
      direction 0.000000 0.000000 1.000000
      length 2.952750
      axis 0.0 0.0 0.0 xyz
      dof rx ry rz
   end
   begin
      id 12
      name Spine
      direction 0.000000 1.000000 0.000000
      length 0.000000
      axis 0.0 0.0 0.0 xyz
      dof rx ry rz
   end
   begin
      id 13
      name Spine_dum1
      direction 0.000000 1.000000 0.000000
      length 13.207411
      axis 0.0 0.0 0.0 xyz
   end
   begin
      id 14
      name Spine_dum2
      direction 0.000000 1.000000 0.000000
      length 13.207411
      axis 0.0 0.0 0.0 xyz
   end
   begin
      id 15
      name Spine_dum3
      direction 0.000000 1.000000 0.000000
      length 19.250100
      axis 0.0 0.0 0.0 xyz
   end
   begin
      id 16
      name RightShoulder
      direction -1.000000 0.000000 0.000000
      length 8.140465
      axis 0.0 0.0 90.0 xyz
      dof rx ry rz
   end
   begin
      id 17
      name RightArm
      direction -1.000000 0.000000 0.000000
      length 10.649840
      axis 0.0 0.0 90.0 xyz
      dof rx ry rz
   end
   begin
      id 18
      name RightForeArm
      direction -1.000000 0.000000 0.000000
      length 8.304624
      axis 0.0 0.0 90.0 xyz
      dof ry rz rx
   end
   begin
      id 19
      name RightHand
      direction -1.000000 0.000000 0.000000
      length 0.000000
      axis 0.0 0.0 90.0 xyz
      dof rx ry rz
   end
   begin
      id 20
      name RightHand_dum1
      direction -1.000000 0.000000 0.000000
      length 3.937000
      axis 0.0 0.0 90.0 xyz
   end
   begin
      id 21
      name RightHand_dum2
      direction 0.000000 0.000000 0.000000
      length 0.000000
      axis 0.0 0.0 90.0 xyz
   end
   begin
      id 22
      name RightHandThumb1
      direction 0.000000 0.000000 1.000000
      length 3.937000
      axis 0.0 0.0 90.0 xyz
      dof rx rz ry
   end
   begin
      id 23
      name LeftShoulder
      direction 1.000000 0.000000 0.000000
      length 8.140465
      axis 0.0 0.0 -90.0 xyz
      dof rx ry rz
   end
   begin
      id 24
      name LeftArm
      direction 1.000000 0.000000 0.000000
      length 10.649840
      axis 0.0 0.0 -90.0 xyz
      dof rx ry rz
   end
   begin
      id 25
      name LeftForeArm
      direction 1.000000 0.000000 0.000000
      length 8.304624
      axis 0.0 0.0 -90.0 xyz
      dof ry rz rx
   end
   begin
      id 26
      name LeftHand
      direction 1.000000 0.000000 0.000000
      length 0.000000
      axis 0.0 0.0 -90.0 xyz
      dof rx ry rz
   end
   begin
      id 27
      name LeftHand_dum1
      direction 1.000000 0.000000 0.000000
      length 3.937000
      axis 0.0 0.0 -90.0 xyz
   end
   begin
      id 28
      name LeftHand_dum2
      direction 0.000000 0.000000 0.000000
      length 0.000000
      axis 0.0 0.0 -90.0 xyz
   end
   begin
      id 29
      name LeftHandThumb1
      direction 0.000000 0.000000 1.000000
      length 3.937000
      axis 0.0 0.0 -90.0 xyz
      dof rx rz ry
   end
   begin
      id 30
      name Head
      direction 0.000000 1.000000 0.000000
      length 4.527550
      axis 0.0 0.0 0.0 xyz
      dof rx ry rz
   end
:hierarchy
   begin
      root RightUpLeg_dum LeftUpLeg_dum Spine_dum
      RightUpLeg_dum RightUpLeg
      LeftUpLeg_dum LeftUpLeg
      Spine_dum Spine
      RightUpLeg RightLeg
      RightLeg RightFoot
      RightFoot RightToeBase
      LeftUpLeg LeftLeg
      LeftLeg LeftFoot
      LeftFoot LeftToeBase
      Spine Spine_dum1 Spine_dum2 Spine_dum3
      Spine_dum1 RightShoulder
      Spine_dum2 LeftShoulder
      Spine_dum3 Head
      RightShoulder RightArm
      RightArm RightForeArm
      RightForeArm RightHand
      RightHand RightHand_dum1 RightHand_dum2
      RightHand_dum2 RightHandThumb1
      LeftShoulder LeftArm
      LeftArm LeftForeArm
      LeftForeArm LeftHand
      LeftHand LeftHand_dum1 LeftHand_dum2
      LeftHand_dum2 LeftHandThumb1
   end

# File created by Blade
# Date/Time:  Wed Jan 21 19:08:52 2015
# Frame Rate: 120.000 fps
#------------------------------------------------------
:FULLY-SPECIFIED
:DEGREES
132
root -4.532427 32.604200 -7.662606 40.142328 7.016666 0.779408
RightUpLeg -36.070198 -17.090644 6.047437
RightLeg 0.071895 -0.000000 -0.000000
RightFoot -8.822769 5.574445 24.348829
RightToeBase 23.051254 -0.000000 -0.000000
LeftUpLeg -35.594663 -1.875818 -3.141791
LeftLeg 2.093628 -0.000000 -0.000000
LeftFoot -10.319894 -4.257823 -4.435011
LeftToeBase 10.966103 -0.000000 -0.000000
Spine -42.358684 -2.222759 0.842762
RightShoulder -17.299660 15.901947 -44.197914
RightArm 2.930887 -17.428524 42.589852
RightForeArm 5.868681 -0.000000 -6.561048
RightHand 6.183487 -0.000000 7.784243
RightHandThumb1 -24.326973 -0.000000 -32.862282
LeftShoulder -10.575382 2.711269 40.193060
LeftArm 22.299879 -11.944666 -41.782981
LeftForeArm 11.272581 -0.000000 -4.667742
LeftHand -21.956858 -0.000000 -5.034655
LeftHandThumb1 -26.253704 0.000000 33.147579
Head 8.104228 -1.688259 8.360353
133
root -4.492955 32.606644 -7.669743 40.130167 6.864452 0.697784
RightUpLeg -36.309671 -17.049083 6.050951
RightLeg 0.479538 -0.000000 -0.000000
RightFoot -8.876994 5.635288 24.299366
RightToeBase 22.999284 -0.000000 -0.000000
LeftUpLeg -35.597771 -1.916793 -3.137172
LeftLeg 2.129487 -0.000000 -0.000000
LeftFoot -10.333699 -4.021004 -4.197453
LeftToeBase 10.755628 -0.000000 -0.000000
Spine -42.343945 -2.091414 0.794476
RightShoulder -17.298866 15.946560 -44.204205
RightArm 2.883579 -17.490391 42.637217
RightForeArm 5.912852 0.000000 -6.511833
RightHand 6.402568 -0.000000 7.605769
RightHandThumb1 -24.326973 -0.000000 -32.862282
LeftShoulder -10.551464 2.716191 40.218229
LeftArm 22.287793 -11.949798 -41.831210
LeftForeArm 11.204694 -0.000000 -4.650116
LeftHand -22.004235 -0.000000 -5.026403
LeftHandThumb1 -26.253704 0.000000 33.147579
Head 8.168411 -1.684306 8.412579
134
root -4.455897 32.609961 -7.676813 40.112765 6.706045 0.601438
RightUpLeg -36.547256 -16.962492 6.043627
RightLeg 0.892116 -0.000000 -0.000000
RightFoot -8.950029 5.657195 24.347432
RightToeBase 23.121573 -0.000000 -0.000000
LeftUpLeg -35.601007 -1.967344 -3.098819
LeftLeg 2.155938 -0.000000 -0.000000
LeftFoot -10.366891 -3.766814 -4.075471
LeftToeBase 10.636709 -0.000000 -0.000000
Spine -42.323441 -1.972091 0.781160
RightShoulder -17.309905 15.916781 -44.199044
RightArm 2.992737 -17.414105 42.676201
RightForeArm 5.744479 -0.000000 -6.530389
RightHand 6.201919 -0.000000 7.485053
RightHandThumb1 -24.326973 -0.000000 -32.862282
LeftShoulder -10.567251 2.743936 40.209378
LeftArm 22.277050 -11.905551 -41.810651
LeftForeArm 11.301282 -0.000000 -4.675718
LeftHand -21.907359 -0.000000 -5.085828
LeftHandThumb1 -26.253704 0.000000 33.147579
Head 8.220057 -1.677815 8.438795
135
root -4.419504 32.613996 -7.685347 40.102229 6.542865 0.501397
RightUpLeg -36.783558 -16.802448 5.991369
RightLeg 1.311754 -0.000000 -0.000000
RightFoot -9.024879 5.580515 24.284907
RightToeBase 23.069648 -0.000000 -0.000000
LeftUpLeg -35.619827 -2.009160 -3.061376
LeftLeg 2.192385 -0.000000 -0.000000
LeftFoot -10.398182 -3.536547 -3.983550
LeftToeBase 10.598435 -0.000000 -0.000000
Spine -42.311794 -1.851247 0.760008
RightShoulder -17.290379 16.033629 -44.198556
RightArm 2.932058 -17.411601 42.710079
RightForeArm 5.799282 -0.000000 -6.478376
RightHand 6.177528 0.000000 7.793597
RightHandThumb1 -24.326973 -0.000000 -32.862282
LeftShoulder -10.571967 2.780618 40.230575
LeftArm 22.262467 -11.835260 -41.809016
LeftForeArm 11.201165 -0.000000 -4.679897
LeftHand -21.941379 -0.000000 -5.014391
LeftHandThumb1 -26.253704 0.000000 33.147579
Head 8.290432 -1.627253 8.513401
136
root -4.383673 32.618875 -7.695067 40.086917 6.363745 0.395611
RightUpLeg -37.038503 -16.625956 5.941847
RightLeg 1.772535 -0.000000 -0.000000
RightFoot -9.117509 5.478115 24.304793
RightToeBase 23.064099 -0.000000 -0.000000
LeftUpLeg -35.637301 -2.083927 -2.993164
LeftLeg 2.228251 -0.000000 -0.000000
LeftFoot -10.427109 -3.252025 -3.900538
LeftToeBase 10.565581 -0.000000 -0.000000
Spine -42.289715 -1.710025 0.740016
RightShoulder -17.263584 16.048141 -44.184311
RightArm 2.932795 -17.366163 42.747227
RightForeArm 5.789900 -0.000000 -6.436985
RightHand 6.224080 -0.000000 7.621412
RightHandThumb1 -24.326973 -0.000000 -32.862282
LeftShoulder -10.593734 2.797662 40.250912
LeftArm 22.238604 -11.799958 -41.838108
LeftForeArm 11.187564 -0.000000 -4.642750
LeftHand -22.011909 -0.000000 -5.058530
LeftHandThumb1 -26.253704 0.000000 33.147579
Head 8.356353 -1.561052 8.515791
137
root -4.347978 32.624590 -7.705471 40.056925 6.191385 0.293586
RightUpLeg -37.332578 -16.523966 5.937321
RightLeg 2.311504 -0.000000 -0.000000
RightFoot -9.204001 5.471644 24.276620
RightToeBase 23.045467 -0.000000 -0.000000
LeftUpLeg -35.652074 -2.156346 -2.929612
LeftLeg 2.286056 -0.000000 -0.000000
LeftFoot -10.456996 -2.974581 -3.806837
LeftToeBase 10.481547 -0.000000 -0.000000
Spine -42.256080 -1.603764 0.754505
RightShoulder -17.213087 16.071378 -44.159565
RightArm 2.978177 -17.241713 42.768700
RightForeArm 5.697319 -0.000000 -6.430168
RightHand 6.285753 0.000000 7.640291
RightHandThumb1 -24.326973 -0.000000 -32.862282
LeftShoulder -10.629764 2.869468 40.225921
LeftArm 22.240767 -11.888516 -41.855435
LeftForeArm 11.292068 0.000000 -4.665546
LeftHand -22.003368 -0.000000 -5.091748
LeftHandThumb1 -26.253704 0.000000 33.147579
Head 8.418401 -1.524284 8.547713
138
root -4.312305 32.629975 -7.716547 40.031950 6.018915 0.187628
RightUpLeg -37.606307 -16.305862 5.858062
RightLeg 2.848173 -0.000000 -0.000000
RightFoot -9.354817 5.311017 24.301692
RightToeBase 23.096252 -0.000000 -0.000000
LeftUpLeg -35.674837 -2.215545 -2.869906
LeftLeg 2.345562 -0.000000 -0.000000
LeftFoot -10.473096 -2.716656 -3.674741
LeftToeBase 10.387077 -0.000000 -0.000000
Spine -42.213564 -1.459205 0.731190
RightShoulder -17.228946 16.123814 -44.161287
RightArm 2.976372 -17.409269 42.805038
RightForeArm 5.877526 0.000000 -6.376984
RightHand 6.219444 -0.000000 7.586063
RightHandThumb1 -24.326973 -0.000000 -32.862282
LeftShoulder -10.635381 2.856744 40.241303
LeftArm 22.196883 -11.878711 -41.877582
LeftForeArm 11.348536 0.000000 -4.687365
LeftHand -21.929424 -0.000000 -5.119957
LeftHandThumb1 -26.253704 0.000000 33.147579
Head 8.449280 -1.490941 8.594145
139
root -4.277584 32.635892 -7.728885 40.010513 5.847039 0.069571
RightUpLeg -37.929015 -16.131438 5.825152
RightLeg 3.450047 -0.000000 -0.000000
RightFoot -9.483424 5.236829 24.269841
RightToeBase 23.114939 -0.000000 -0.000000
LeftUpLeg -35.714529 -2.278491 -2.787501
LeftLeg 2.423721 -0.000000 -0.000000
LeftFoot -10.502671 -2.452574 -3.570646
LeftToeBase 10.273041 -0.000000 -0.000000
Spine -42.185158 -1.319411 0.741927
RightShoulder -17.201411 16.126583 -44.161369
RightArm 3.025848 -17.389166 42.850006
RightForeArm 5.918836 -0.000000 -6.396541
RightHand 6.268993 0.000000 7.619856
RightHandThumb1 -24.326973 -0.000000 -32.862282
LeftShoulder -10.658336 2.897562 40.256855
LeftArm 22.175516 -11.869525 -41.914834
LeftForeArm 11.336893 -0.000000 -4.673737
LeftHand -21.961748 -0.000000 -5.103567
LeftHandThumb1 -26.253704 0.000000 33.147579
Head 8.506361 -1.453119 8.611645
140
root -4.244648 32.643315 -7.743574 39.982574 5.644540 -0.076817
RightUpLeg -38.276635 -15.859523 5.764552
RightLeg 4.114187 -0.000000 -0.000000
RightFoot -9.636166 5.076763 24.276324
RightToeBase 23.116015 -0.000000 -0.000000
LeftUpLeg -35.738060 -2.284172 -2.718931
LeftLeg 2.476205 -0.000000 -0.000000
LeftFoot -10.535305 -2.125734 -3.254319
LeftToeBase 10.166990 -0.000000 -0.000000
Spine -42.140122 -1.140137 0.749744
RightShoulder -17.172441 16.199437 -44.148539
RightArm 3.005811 -17.362701 42.871108
RightForeArm 5.838504 0.000000 -6.372345
RightHand 6.237399 -0.000000 7.525494
RightHandThumb1 -24.326973 -0.000000 -32.862282
LeftShoulder -10.667352 2.890934 40.277612
LeftArm 22.095973 -11.849652 -41.930588
LeftForeArm 11.298627 -0.000000 -4.674848
LeftHand -21.922362 -0.000000 -5.186316
LeftHandThumb1 -26.253704 0.000000 33.147579
Head 8.556084 -1.425106 8.628783
